<svg width="94" height="92" viewBox="0 0 94 92" fill="none" xmlns="http://www.w3.org/2000/svg">
<path d="M90 12L75.5423 40.0156C75.0027 41.0611 73.542 41.1512 72.8781 40.1798V40.1798C72.078 39.0092 70.2567 39.4336 70.0565 40.8372L66.5129 65.6734C66.1847 67.9736 62.8585 67.959 62.5506 65.656L58.1886 33.0376C57.8966 30.8546 54.8062 30.6777 54.2671 32.8131L50.1739 49.0254C49.7126 50.8525 47.2114 51.086 46.4197 49.3759L39.3926 34.195C38.6777 32.6506 36.4833 32.648 35.7647 34.1906L31.973 42.3301L27.1855 51.3311C26.4498 52.7144 24.4812 52.7528 23.692 51.3993L16.3845 38.867C15.7721 37.8166 14.3719 37.5512 13.4175 38.3046L8.6136 42.097C7.6475 42.8597 6.22832 42.577 5.62819 41.5024L4 38.5868" stroke="#6FCF97" stroke-width="4"/>
</svg>
