<svg width="94" height="92" viewBox="0 0 94 92" fill="none" xmlns="http://www.w3.org/2000/svg">
<path d="M90 80L75.5423 51.9844C75.0027 50.9389 73.542 50.8488 72.8781 51.8202V51.8202C72.078 52.9908 70.2567 52.5664 70.0565 51.1628L66.5129 26.3266C66.1847 24.0264 62.8585 24.041 62.5506 26.344L58.1886 58.9624C57.8966 61.1454 54.8062 61.3223 54.2671 59.1869L50.1739 42.9746C49.7126 41.1475 47.2114 40.914 46.4197 42.6241L39.3926 57.805C38.6777 59.3494 36.4833 59.352 35.7647 57.8094L31.973 49.6699L27.1855 40.6689C26.4498 39.2856 24.4812 39.2472 23.692 40.6007L16.3845 53.133C15.7721 54.1834 14.3719 54.4488 13.4175 53.6954L8.6136 49.903C7.6475 49.1403 6.22832 49.423 5.62818 50.4976L4 53.4131" stroke="#DC1500" stroke-width="4"/>
</svg>
