<svg width="98" height="92" viewBox="0 0 98 92" fill="none" xmlns="http://www.w3.org/2000/svg">
<path d="M96 24.8793L82.8062 41.011C81.813 42.2254 79.8721 41.8756 79.3653 40.3909L78.6997 38.4408C78.0445 36.5212 75.2777 36.6836 74.8515 38.6666L72.3172 50.4603C71.8492 52.6377 68.7086 52.5355 68.3832 50.3322L62.536 10.7293C62.2118 8.53327 59.0853 8.4214 58.6049 10.5887L50.9883 44.9512C50.536 46.992 47.6508 47.0584 47.1051 45.0405L41.5648 24.5539C41.022 22.5468 38.1573 22.5977 37.6862 24.6228L33.2257 43.7968L26.5019 73.4463L23.1784 83.1706C22.4813 85.2104 19.4947 84.8558 19.2946 82.7094L15.0747 37.4518C14.8975 35.5517 12.4133 34.9555 11.3931 36.5683L7.50157 42.7201C6.57489 44.185 4.35053 43.8578 3.88488 42.1881L2 35.4294" stroke="#6FCF97" stroke-width="4"/>
</svg>
