<svg width="94" height="92" viewBox="0 0 94 92" fill="none" xmlns="http://www.w3.org/2000/svg">
<path d="M92 65L81.1803 46L77.3887 40.0967C76.484 38.6882 74.3524 38.9481 73.8127 40.5327L71.3874 47.6534C70.7212 49.6096 67.8873 49.3937 67.5252 47.3591L62.1971 17.4253C61.798 15.1832 58.5608 15.2447 58.2471 17.5003L50.6042 72.4606C50.2867 74.7435 46.9963 74.7669 46.6464 72.4887L40.5386 32.7162C40.2009 30.5176 37.0652 30.4298 36.605 32.606L34.9508 40.4294L32.4918 51.5253L28.6944 67.3013C28.2257 69.2484 25.5038 69.3745 24.8571 67.4791L15.6868 40.6022C15.1421 39.0056 12.987 38.7591 12.0958 40.1914L7.46044 47.6412C6.53881 49.1224 4.29506 48.7961 3.83357 47.1137L2 40.4294" stroke="#FA976C" stroke-width="4"/>
</svg>
