<svg width="18" height="18" viewBox="0 0 18 18" fill="none" xmlns="http://www.w3.org/2000/svg">
<path d="M17.5445 0.455592C17.1458 0.0568991 16.5651 -0.0810211 16.032 0.0905098L1.05433 4.90496C0.485262 5.08808 0.0912048 5.57023 0.0263012 6.16479C-0.0386023 6.75819 0.243033 7.31451 0.758784 7.61469L6.06233 10.708L10.6438 6.12538C10.9834 5.7858 11.5339 5.7858 11.8735 6.12538C12.2131 6.46497 12.2131 7.01549 11.8735 7.35507L7.29087 11.9377L10.3842 17.2413C10.6566 17.7072 11.1376 17.9819 11.6672 17.9819C11.7229 17.9819 11.7796 17.9784 11.8364 17.9726C12.4298 17.9077 12.9131 17.5136 13.0951 16.9457L17.9107 1.96924C18.0822 1.43262 17.942 0.853127 17.5445 0.455592Z" fill="white"/>
</svg>
